<svg xmlns="http://www.w3.org/2000/svg" viewBox="0 0 196.362 250.362">
  <defs>
    <style>
      .cls-1 {
        fill: #434954;
      }
    </style>
  </defs>
  <g id="Group_230" data-name="Group 230" transform="translate(-861.932 -254.197)">
    <path id="path6_1_" class="cls-1" d="M205.657.811c35.553.109,71.106,0,106.659.109,12.909.875,25.817,0,38.726.547-.656,11.486-.438,23.082-.438,34.569-35.881,0-71.763-.109-107.753,0V87.67c20.129,0,40.367.109,60.5,0,.109,11.049,0,21.988.109,33.037-20.129.219-40.366-.109-60.495.109.109,43.32-.219,86.75.109,130.07-12.58.328-25.27.328-37.85,0,.438-36.866-.328-73.732.438-110.6,0-46.493-.109-92.985,0-139.478Z" transform="translate(656.712 253.387)"/>
    <path id="path8_1_" class="cls-1" d="M336.588.887c12.58,0,25.161-.109,37.741,0-.328,33.256.328,66.512-.438,99.768v117.6c0,10.939.219,21.879-.438,32.818-20.347.328-40.695-.656-61.042-.438H228.725c0-11.6.438-23.192.219-34.787H336.479c.219-17.394,0-34.678.109-52.072-20.129-.109-40.257-.109-60.495,0V130.738c20.129-.328,40.366.109,60.495-.219,0-43.211.11-86.421,0-129.632Z" transform="translate(683.965 253.419)"/>
  </g>
</svg>
